HIERARCHY
ROOT SpineBase
{
  OFFSET 0.000000 0.000000 0.000000
  CHANNELS 6 Xposition Yposition Zposition Zrotation Xrotation Yrotation
  JOINT SpineMid
  {
    OFFSET 0.000000 28.465714 0.000000
    CHANNELS 3 Zrotation Xrotation Yrotation
    JOINT SpineShoulder
    {
      OFFSET -0.085958 21.095102 -0.685350
      CHANNELS 3 Zrotation Xrotation Yrotation
      JOINT Neck
      {
        OFFSET -0.061796 6.981185 -0.524058
        CHANNELS 3 Zrotation Xrotation Yrotation
        JOINT Head
        {
          OFFSET 4.899827 12.671053 0.661699
          CHANNELS 3 Zrotation Xrotation Yrotation
          End Site
          {
            OFFSET 0 0 0
          }
        }
      }
      JOINT ShoulderLeft
      {
        OFFSET -13.192055 -3.565874 -7.786597
        CHANNELS 3 Zrotation Xrotation Yrotation
        JOINT ElbowLeft
        {
          OFFSET -5.926835 -23.422872 -0.899038
          CHANNELS 3 Zrotation Xrotation Yrotation
          JOINT WristLeft
          {
            OFFSET -0.057540 -19.730351 -4.654305
            CHANNELS 3 Zrotation Xrotation Yrotation
            JOINT HandLeft
            {
              OFFSET 0.649522 -6.793683 0.596576
              CHANNELS 3 Zrotation Xrotation Yrotation
              JOINT HandTipLeft
              {
                OFFSET -0.529670 -6.769826 -0.192516
                CHANNELS 3 Zrotation Xrotation Yrotation
                End Site
                {
                  OFFSET 0 0 0
                }
              }
              JOINT ThumbLeft
              {
                OFFSET 3.129810 0.630536 -0.138187
                CHANNELS 3 Zrotation Xrotation Yrotation
                End Site
                {
                  OFFSET 0 0 0
                }
              }
            }
          }
        }
      }
      JOINT ShoulderRight
      {
        OFFSET 15.214361 -5.709266 3.947125
        CHANNELS 3 Zrotation Xrotation Yrotation
        JOINT ElbowRight
        {
          OFFSET 2.043961 -25.331953 3.381783
          CHANNELS 3 Zrotation Xrotation Yrotation
          JOINT WristRight
          {
            OFFSET -1.780232 -21.563957 -4.458633
            CHANNELS 3 Zrotation Xrotation Yrotation
            JOINT HandRight
            {
              OFFSET -0.437346 -5.709943 -0.149604
              CHANNELS 3 Zrotation Xrotation Yrotation
              JOINT HandTipRight
              {
                OFFSET 0.294351 -5.617274 0.432204
                CHANNELS 3 Zrotation Xrotation Yrotation
                End Site
                {
                  OFFSET 0 0 0
                }
              }
              JOINT ThumbRight
              {
                OFFSET -3.039510 0.188999 -2.591862
                CHANNELS 3 Zrotation Xrotation Yrotation
                End Site
                {
                  OFFSET 0 0 0
                }
              }
            }
          }
        }
      }
    }
  }
  JOINT HipLeft
  {
    OFFSET -6.383819 1.539544 -5.370547
    CHANNELS 3 Zrotation Xrotation Yrotation
    JOINT KneeLeft
    {
      OFFSET -6.635365 -27.938707 5.756021
      CHANNELS 3 Zrotation Xrotation Yrotation
      JOINT AnkleLeft
      {
        OFFSET -4.341358 -34.361260 8.746324
        CHANNELS 3 Zrotation Xrotation Yrotation
        JOINT FootLeft
        {
          OFFSET 3.083907 -3.927559 -11.867924
          CHANNELS 3 Zrotation Xrotation Yrotation
          End Site
          {
            OFFSET 0 0 0
          }
        }
      }
    }
  }
  JOINT HipRight
  {
    OFFSET 5.719455 0.055185 -0.976885
    CHANNELS 3 Zrotation Xrotation Yrotation
    JOINT KneeRight
    {
      OFFSET -10.437008 -33.744793 8.815622
      CHANNELS 3 Zrotation Xrotation Yrotation
      JOINT AnkleRight
      {
        OFFSET -6.319158 -26.852872 4.880574
        CHANNELS 3 Zrotation Xrotation Yrotation
        JOINT FootRight
        {
          OFFSET -5.783155 -5.322599 -6.156947
          CHANNELS 3 Zrotation Xrotation Yrotation
          End Site
          {
            OFFSET 0 0 0
          }
        }
      }
    }
  }
}
MOTION
Frames: 16
Frame Time: 0.033333
32.405978 79.025000 310.045934 -0.000000 0.000000 -19.951626 0.000000 0.000000 19.951626 -0.000000 0.000000 0.000000 -0.000000 0.000000 0.000000 0.000000 0.000000 0.000000 -0.000000 0.000000 0.000000 -0.000000 0.000000 0.000000 -0.000000 0.000000 0.000000 -0.000000 0.000000 0.000000 0.000000 0.000000 0.000000 0.000000 0.000000 0.000000 -0.000000 0.000000 0.000000 -0.000000 0.000000 0.000000 -0.000000 0.000000 0.000000 -0.000000 0.000000 0.000000 0.000000 0.000000 0.000000 0.000000 0.000000 0.000000 0.000000 0.000000 19.951626 -0.000000 0.000000 0.000000 -0.000000 0.000000 0.000000 0.000000 0.000000 0.000000 0.000000 0.000000 19.951626 -0.000000 0.000000 0.000000 -0.000000 0.000000 0.000000 0.000000 0.000000 0.000000
32.396620 79.030307 310.020965 -0.014786 0.032554 -19.806123 0.024942 -0.025618 19.806133 -0.000000 0.000000 0.000000 -0.000000 0.000000 0.000000 0.000000 0.000000 0.000000 -0.000000 0.000000 0.000000 -0.000000 0.000000 0.000000 -0.000000 0.000000 0.000000 -0.000000 0.000000 0.000000 0.000000 0.000000 0.000000 0.000000 0.000000 0.000000 -0.000000 0.000000 0.000000 -0.000000 0.000000 0.000000 -1.127122 -1.143479 0.105818 -0.868510 0.682593 -0.274513 0.000000 0.000000 0.000000 0.000000 0.000000 0.000000 0.024942 -0.025618 19.806133 -0.000000 0.000000 0.000000 -0.000000 0.000000 0.000000 0.000000 0.000000 0.000000 0.024942 -0.025618 19.806133 -0.000000 0.000000 0.000000 0.607063 -0.783937 0.155836 0.000000 0.000000 0.000000
32.396876 79.034372 310.004381 -0.026757 0.057780 -19.664403 0.044640 -0.045407 19.664434 -0.000000 0.000000 0.000000 -0.000000 0.000000 0.000000 0.000000 0.000000 0.000000 -0.000000 0.000000 0.000000 -0.000000 0.000000 0.000000 -0.605907 -0.636687 -0.117448 1.826280 1.380669 -0.003587 0.000000 0.000000 0.000000 0.000000 0.000000 0.000000 -0.000000 0.000000 0.000000 -0.000000 0.000000 0.000000 -2.046733 -1.920924 0.166305 -1.779046 1.056679 -0.476190 0.000000 0.000000 0.000000 0.000000 0.000000 0.000000 0.044640 -0.045407 19.664434 -0.000000 0.000000 0.000000 -0.000000 0.000000 0.000000 0.000000 0.000000 0.000000 0.044640 -0.045407 19.664434 -0.000000 0.000000 0.000000 1.089075 -1.430703 0.316178 0.000000 0.000000 0.000000
32.406746 79.037196 309.996183 -0.035910 0.075674 -19.526502 0.059138 -0.059319 19.526556 -0.000000 0.000000 0.000000 -0.000000 0.000000 0.000000 0.000000 0.000000 0.000000 -0.000000 0.000000 0.000000 -0.000000 0.000000 0.000000 -0.757934 -0.755512 -0.143796 2.447565 1.745677 -0.028474 0.000000 0.000000 0.000000 0.000000 0.000000 0.000000 -0.000000 0.000000 0.000000 0.557323 0.708807 -0.177044 -3.289803 -3.020985 0.329068 -2.641718 1.114990 -0.620772 0.000000 0.000000 0.000000 0.000000 0.000000 0.000000 0.059138 -0.059319 19.526556 -0.000000 0.000000 0.000000 -0.000000 0.000000 0.000000 0.000000 0.000000 0.000000 0.059138 -0.059319 19.526556 -0.000000 0.000000 0.000000 1.442118 -1.936834 0.476571 0.000000 0.000000 0.000000
32.426231 79.038779 309.996369 -0.042242 0.086231 -19.392444 0.068477 -0.067313 19.392516 -0.000000 0.000000 0.000000 -0.000000 0.000000 0.000000 0.000000 0.000000 0.000000 -0.000000 0.000000 0.000000 -0.000000 0.000000 0.000000 -0.815053 -0.748483 -0.148474 2.866698 1.891308 -0.057079 0.000000 0.000000 0.000000 0.000000 0.000000 0.000000 -0.000000 0.000000 0.000000 0.696167 0.773105 -0.212276 -3.877555 -3.053107 0.353453 -3.384335 0.850613 -0.724087 0.000000 0.000000 0.000000 0.000000 0.000000 0.000000 0.068477 -0.067313 19.392516 -0.000000 0.000000 0.000000 -0.000000 0.000000 0.000000 0.000000 0.000000 0.000000 0.068477 -0.067313 19.392516 -0.000000 0.000000 0.000000 1.663076 -2.299930 0.633445 0.000000 0.000000 0.000000
32.455330 79.039120 310.004942 -0.045753 0.089446 -19.262244 0.072699 -0.069345 19.262324 -0.000000 0.000000 0.000000 -0.000000 0.000000 0.000000 0.000000 0.000000 0.000000 -0.000000 0.000000 0.000000 -0.000000 0.000000 0.000000 -0.779438 -0.617807 -0.131739 3.079140 1.816368 -0.084618 0.000000 0.000000 0.000000 0.000000 0.000000 0.000000 -0.000000 0.000000 0.000000 0.815142 0.755396 -0.236098 -4.190848 -2.567639 0.353265 -3.967909 0.254288 -0.797369 0.000000 0.000000 0.000000 0.000000 0.000000 0.000000 0.072699 -0.069345 19.262324 -0.000000 0.000000 0.000000 -0.000000 0.000000 0.000000 0.000000 0.000000 0.000000 0.072699 -0.069345 19.262324 -0.000000 0.000000 0.000000 1.749629 -2.518491 0.784203 0.000000 0.000000 0.000000
32.494703 79.037048 310.024197 -0.051437 0.087592 -19.155766 0.077332 -0.065863 19.155849 -0.000000 0.000000 0.000000 -0.000000 0.000000 0.000000 0.000000 0.000000 0.000000 -0.000000 0.000000 0.000000 -0.000000 0.000000 0.000000 -0.810950 -0.464678 -0.118967 3.308470 2.191338 -0.151650 0.000000 0.000000 0.000000 0.000000 0.000000 0.000000 -0.000000 0.000000 0.000000 1.021482 0.595556 -0.265596 -4.409657 -0.904482 0.321316 -3.361862 -0.986062 -0.749533 0.000000 0.000000 0.000000 0.000000 0.000000 0.000000 0.077332 -0.065863 19.155849 -0.000000 0.000000 0.000000 -0.000000 0.000000 0.000000 0.000000 0.000000 0.000000 0.077332 -0.065863 19.155849 -0.000000 0.000000 0.000000 1.716978 -2.740249 1.080163 0.000000 0.000000 0.000000
32.542048 79.037254 310.052838 -0.040681 0.078638 -19.065059 0.064136 -0.061036 19.065122 -0.000000 0.000000 0.000000 -0.886246 0.067719 0.020557 0.000000 0.000000 0.000000 -0.000000 0.000000 0.000000 -0.000000 0.000000 0.000000 -0.000000 0.000000 0.000000 3.151993 1.411927 -0.239411 0.000000 0.000000 0.000000 0.000000 0.000000 0.000000 -0.000000 0.000000 0.000000 1.079362 0.305669 -0.251350 -4.340018 0.548951 0.270790 -2.712702 -1.583635 -0.620058 0.000000 0.000000 0.000000 0.000000 0.000000 0.000000 0.064136 -0.061036 19.065122 -0.000000 0.000000 0.000000 -0.000000 0.000000 0.000000 0.000000 0.000000 0.000000 0.064136 -0.061036 19.065122 -0.000000 0.000000 0.000000 1.418044 -2.568153 1.230621 0.000000 0.000000 0.000000
32.601975 79.033996 310.087402 -0.033602 0.053589 -18.922615 0.049165 -0.039796 18.922648 -0.000000 0.000000 0.000000 -0.992621 0.149954 -0.004834 0.000000 0.000000 0.000000 -0.000000 0.000000 0.000000 -0.000000 0.000000 0.000000 -0.254891 0.821953 0.058080 3.315866 -0.114525 -0.172286 0.000000 0.000000 0.000000 0.000000 0.000000 0.000000 -0.000000 0.000000 0.000000 1.039861 -0.043569 -0.211193 -3.304250 3.321961 0.085590 -2.894818 -3.653362 -0.470816 0.000000 0.000000 0.000000 0.000000 0.000000 0.000000 0.049165 -0.039796 18.922648 -0.000000 0.000000 0.000000 -0.000000 0.000000 0.000000 0.000000 0.000000 0.000000 0.049165 -0.039796 18.922648 -0.000000 0.000000 0.000000 1.151018 -2.297369 1.229986 0.000000 0.000000 0.000000
32.661394 79.024428 310.128429 -0.028893 0.017590 -18.802898 0.033021 -0.007338 18.802904 -0.000000 0.000000 0.000000 -1.064568 0.170185 -0.008602 0.000000 0.000000 0.000000 -0.000000 0.000000 0.000000 -0.000000 0.000000 0.000000 0.199314 1.297192 0.139387 2.518234 -0.351725 -0.256755 0.000000 0.000000 0.000000 0.000000 0.000000 0.000000 -0.000000 0.000000 0.000000 1.083583 -0.314235 -0.195401 -3.393322 4.791788 0.020663 -3.312483 -3.896022 -0.438956 0.000000 0.000000 0.000000 0.000000 0.000000 0.000000 0.033021 -0.007338 18.802904 -0.000000 0.000000 0.000000 -0.000000 0.000000 0.000000 0.000000 0.000000 0.000000 0.033021 -0.007338 18.802904 -0.000000 0.000000 0.000000 0.814142 -1.912302 1.181666 0.000000 0.000000 0.000000
32.712093 79.013384 310.152212 -0.039599 -0.014088 -18.630668 0.033023 0.026000 18.630656 -0.000000 0.000000 0.000000 -1.207601 0.277224 -0.041042 0.000000 0.000000 0.000000 -0.000000 0.000000 0.000000 -0.000000 0.000000 0.000000 0.466141 1.710588 0.197713 1.992937 -0.976557 -0.282075 0.000000 0.000000 0.000000 0.000000 0.000000 0.000000 -0.000000 0.000000 0.000000 0.851185 -0.526799 -0.128794 -2.124687 5.661606 -0.155015 -5.958087 -4.151264 -0.675557 0.000000 0.000000 0.000000 0.000000 0.000000 0.000000 0.033023 0.026000 18.630656 -0.000000 0.000000 0.000000 -0.000000 0.000000 0.000000 0.000000 0.000000 0.000000 0.033023 0.026000 18.630656 -0.000000 0.000000 0.000000 0.638980 -1.671394 1.111776 0.000000 0.000000 0.000000
32.753579 79.006273 310.150725 -0.070044 -0.020929 -18.372125 0.059877 0.041939 18.372091 -0.000000 0.000000 0.000000 -1.446002 0.388558 -0.069483 0.000000 0.000000 0.000000 -0.000000 0.000000 0.000000 -0.000000 0.000000 0.000000 0.216928 1.967303 0.203701 3.015466 -1.470143 -0.246001 0.000000 0.000000 0.000000 0.000000 0.000000 0.000000 -0.000000 0.000000 0.000000 0.852634 -0.507906 -0.130787 -2.153884 7.048268 -0.243237 -6.191609 -6.082509 -0.838673 0.000000 0.000000 0.000000 0.000000 0.000000 0.000000 0.059877 0.041939 18.372091 -0.000000 0.000000 0.000000 -0.000000 0.000000 0.000000 0.000000 0.000000 0.000000 0.059877 0.041939 18.372091 -0.000000 0.000000 0.000000 0.688414 -1.645199 1.024912 0.000000 0.000000 0.000000
32.776089 79.003390 310.119070 -0.168486 0.003800 -18.001851 0.161412 0.048456 18.001788 -0.000000 0.000000 0.000000 -1.428079 0.457375 -0.096102 0.000000 0.000000 0.000000 -0.000000 0.000000 0.000000 -0.000000 0.000000 0.000000 0.260913 1.936308 0.203902 4.101582 -1.570536 -0.233202 0.000000 0.000000 0.000000 0.000000 0.000000 0.000000 -0.000000 0.000000 0.000000 0.959521 -0.144593 -0.185427 -1.324510 6.744573 -0.286844 -7.258609 -5.340585 -0.800377 0.000000 0.000000 0.000000 0.000000 0.000000 0.000000 0.161412 0.048456 18.001788 -0.000000 0.000000 0.000000 -0.000000 0.000000 0.000000 0.000000 0.000000 0.000000 0.161412 0.048456 18.001788 -0.000000 0.000000 0.000000 1.123999 -1.839086 0.737748 0.000000 0.000000 0.000000
32.776072 79.002035 310.052174 -0.334850 0.066537 -17.567798 0.339316 0.037635 17.567881 -0.917801 0.219002 -0.065220 -0.520588 0.244373 -0.034758 0.000000 0.000000 0.000000 0.918057 -0.217929 0.068720 -0.000000 0.000000 0.000000 -0.274237 1.702899 0.143034 5.529339 -1.346310 -0.173528 0.000000 0.000000 0.000000 0.000000 0.000000 0.000000 0.918057 -0.217929 0.068720 1.941495 0.383943 -0.439979 -0.755034 5.844988 -0.139484 -8.737542 -4.411309 -0.743101 0.000000 0.000000 0.000000 0.000000 0.000000 0.000000 0.339316 0.037635 17.567881 -0.000000 0.000000 0.000000 -0.000000 0.000000 0.000000 0.000000 0.000000 0.000000 0.339316 0.037635 17.567881 -0.611320 -1.226799 0.170507 2.086923 -0.829459 0.346418 0.000000 0.000000 0.000000
32.749147 79.022754 309.941255 -0.558947 0.155986 -17.040241 -0.553687 -0.098388 17.004713 -0.240299 0.177315 -0.061359 -0.251279 0.148760 -0.028711 0.000000 0.000000 0.000000 0.610434 -0.983819 0.270147 0.750385 0.580921 -0.179865 -1.499093 1.967731 0.082473 5.624567 -2.573600 0.062709 0.000000 0.000000 0.000000 0.000000 0.000000 0.000000 1.358051 -0.399283 0.103110 3.644406 0.970863 -0.865564 -1.130237 6.163725 0.073141 -8.595274 -3.305575 -0.358975 0.000000 0.000000 0.000000 0.000000 0.000000 0.000000 0.580119 0.014662 17.040928 -0.000000 0.000000 0.000000 -0.000000 0.000000 0.000000 0.000000 0.000000 0.000000 0.689838 1.430227 16.765435 -1.710042 -3.594327 0.529063 2.818622 -0.226834 0.490909 0.000000 0.000000 0.000000
32.751349 78.999491 309.840123 -0.904653 0.283410 -16.435338 -0.732412 -0.074909 16.385168 -0.264969 0.219247 -0.082683 0.195748 -0.172948 0.044485 0.000000 0.000000 0.000000 0.801890 -1.099842 0.289404 0.064514 0.327840 0.087260 -2.181320 3.185813 -0.143584 6.584023 -5.555676 0.432423 0.000000 0.000000 0.000000 0.000000 0.000000 0.000000 1.412658 -1.425811 0.010018 6.431554 2.283822 -1.390831 0.734186 5.299917 0.357523 -9.521838 -1.249417 0.182309 0.000000 0.000000 0.000000 0.000000 0.000000 0.000000 1.716456 1.018349 16.459297 -2.267966 -0.970357 -0.343652 1.236464 0.203610 0.287341 0.000000 0.000000 0.000000 1.469000 2.582570 16.019760 -3.503810 -6.014738 0.651000 2.231047 -1.888252 5.897199 0.000000 0.000000 0.000000
